# xmcd CD database file
# Copyright (C) 1993-1998 Ti Kan
#
# Track frame offsets:
#	150
#	17875
#	52688
#	73013
#	96125
#	119213
#	145613
#	170575
#	193463
#	210913
#
# Disc length: 3040 seconds
#
# Revision: 1
# Processed by: cddbd v1.4b41PL1 Copyright (c) Steve Scherf et al.
# Submitted via: CDValet v3.31 - Copyright (c) 1997 Greg Leichner
#
DISCID=900bde0a
DTITLE=Peter Green - Blue Guitar
DYEAR=1900
DGENRE=
TTITLE0=Apostle
TTITLE1=A Fool No More
TTITLE2=Loser Two Times
TTITLE3=Slabo Day
TTITLE4=Cryin' Won't Bring You Back
TTITLE5=Gotta See Her Tonight
TTITLE6=Last Train To San Antone
TTITLE7=Woman Don't
TTITLE8=Whatcha Gonna Do?
TTITLE9=Walkin' The Road
EXTD=
EXTT0=
EXTT1=
EXTT2=
EXTT3=
EXTT4=
EXTT5=
EXTT6=
EXTT7=
EXTT8=
EXTT9=
PLAYORDER=
